<?xml version="1.0" encoding="utf-8"?>
<!-- Svg Vector Icons : http://www.onlinewebfonts.com/icon -->
<!DOCTYPE svg PUBLIC "-//W3C//DTD SVG 1.1//EN" "http://www.w3.org/Graphics/SVG/1.1/DTD/svg11.dtd">
<svg version="1.1" xmlns="http://www.w3.org/2000/svg" xmlns:xlink="http://www.w3.org/1999/xlink" x="0px" y="0px" viewBox="0 0 256 256" enable-background="new 0 0 256 256" xml:space="preserve">
<metadata> Svg Vector Icons : http://www.onlinewebfonts.com/icon </metadata>
<g><g><g><path fill="#000000" d="M35.6,21.9c-3.2,3.9-5.3,6.2-6.2,6.4c-1.1,0.3-10.4-0.5-14.5-1.2c-1-0.2-1.6-0.1-1.5,0.2c0.1,0.2,2.7,2.6,5.9,5.2c3.1,2.5,5.9,5,6.2,5.5c0.4,0.7-0.3,12.1-1,15.2c-0.5,2.4,1.2,0.9,5.5-4.5c2.4-3.1,4.9-5.9,5.6-6.2c0.9-0.4,2.8-0.3,7.9,0.3c3.7,0.4,7.2,0.7,7.8,0.6c0.8-0.1-0.2-1.1-5-5c-3.3-2.7-6.3-5.4-6.5-6c-0.3-0.6-0.1-3.6,0.3-7.3C41.3,14.6,41.4,14.7,35.6,21.9z"/><path fill="#000000" d="M216.3,24.8c-3.2,4-6.2,7.3-7,7.6c-1,0.4-3.3,0.3-10-0.4c-4.8-0.5-8.9-0.8-9.1-0.6c-0.2,0.2,2.8,3,6.8,6.2c6.1,4.8,7.3,6.1,7.6,7.4c0.1,0.8-0.1,5.3-0.6,9.8c-0.5,4.5-0.8,8.4-0.7,8.6c0.4,0.6,1-0.1,6.4-6.8c2.9-3.6,5.8-6.9,6.6-7.3c1-0.5,2.4-0.5,9,0.2c10.3,1.1,10.1,1.1,10.3,0.5c0.1-0.3-2.9-2.9-6.8-5.9c-4-3.1-7.2-6-7.5-6.8c-0.4-1-0.3-3.3,0.4-10c0.5-4.8,0.8-8.9,0.5-9.1C222.1,18.1,219.3,21,216.3,24.8z"/><path fill="#000000" d="M110.6,26.2c-26.4,1.6-51,12.7-69.5,31.4c-16.2,16.3-25.8,35-30,58.3c-1.1,6.3-1.4,20.1-0.7,27.3c4.4,42.3,33.1,77.8,73.3,90.8c49.8,16,103.8-6.4,127.6-53.1c5.5-10.9,9-22,10.7-33.8c0.9-6.5,1-20.7,0.3-27c-1.4-11.7-5.1-24-10.3-34.4c-17.4-35.4-52.7-58.1-92.1-59.4C116.3,26.2,112.1,26.1,110.6,26.2z M124,47.6c2.9,1.7,3.6,3.1,3.9,7.9c0.1,2.3,0.1,5-0.1,6l-0.3,1.8h-11.6c-8.4,0-11.8-0.2-12.2-0.6c-0.8-0.8-0.7-3.1,0.4-7.4c2.1-7.7,4.1-9.1,12.7-8.9C121.2,46.6,122.7,46.8,124,47.6z M94,51.2c0.3,0.9-1.2,8.3-2.1,10.3c-1.4,2.7-2.5,3.1-13.3,4.6c-5.6,0.8-10.6,1.3-11,1.1c-0.4-0.2-0.8-0.7-0.8-1.1c0-1,3.6-5.8,5.1-6.8c1.2-0.8,11.4-5.4,16.5-7.4C92.5,50.2,93.6,50.1,94,51.2z M148.3,53.4c13.3,5.4,16.6,7.7,16.6,11.2c0,2.8-0.5,2.9-9.6,1.7c-13.7-1.8-14.1-2-15.9-9.5c-1.2-5.1-1.1-6.4,0.5-6.4C140.6,50.4,144.3,51.7,148.3,53.4z M130.5,74.5c0.7,0.4,1.6,1.3,1.9,2.1c0.8,2.1,2.6,24,2.1,25c-1.2,2.3-1.3,2.3-18.1,2.3c-16,0.1-16,0.1-17.1-1.1c-0.8-0.7-1.1-1.7-1.1-3c0.1-4.3,1.9-22.4,2.4-23.4c1-1.9,2.2-2.4,6.5-2.7C114,73.2,128.9,73.7,130.5,74.5z M156.3,76.8c9.1,1.5,12.7,2.5,14.1,4.1c0.7,0.9,4,19.2,4,22.4c0,1.4-0.3,2-1.1,2.6c-1.1,0.7-2.3,0.6-13.1-0.3c-7.5-0.6-12.3-1.2-13-1.7c-1.6-1-2-2.9-2.9-13c-1-12-1-13.7,0.1-14.8C145.4,75,145.4,75,156.3,76.8z M186.2,85.2c1.1,0.7,2.5,2.1,3.2,2.9c1.6,2,9.5,20.3,9.3,21.7c-0.2,1.5-2.1,1.6-6.4,0.4c-4.3-1.2-5.8-2.1-6.7-4.2c-0.4-0.9-1.3-5.9-2-11.2c-1-7.8-1.2-9.8-0.7-10.4C183.7,83.5,183.9,83.6,186.2,85.2z M49.8,85.5c0.5,0.6,0.3,2.7-0.8,10.6c-1.3,9.6-1.4,9.9-2.9,11.5c-1.7,1.7-6.1,3.3-9.7,3.3c-1.9,0.1-2.2-0.1-2.4-1c-0.1-0.5,1.1-4.1,2.7-8c5.4-13.3,7.8-17.1,11-17.1C48.4,84.8,49.4,85.1,49.8,85.5z M85.7,116.1l1.1,0.9l0.1,16.1l0.1,16.2l-1.4,1.4c-1.2,1.2-1.7,1.4-3.3,1.1c-1-0.1-6.2-0.6-11.6-1c-5.3-0.4-10.4-1-11.1-1.3c-2.8-1.1-3.1-2.3-3.1-16.1c0-11.1,0.1-12.7,0.8-13.9c0.5-0.7,1.3-1.5,1.9-1.8c1-0.5,17.5-2.3,22.7-2.4C83.8,115.2,84.9,115.4,85.7,116.1z M161.5,116.2c6,0.5,11.3,1.2,11.9,1.5s1.4,1.1,1.9,1.8c0.7,1.2,0.8,2.8,0.8,14.1c0,11.5-0.1,12.9-0.9,14.1c-0.5,0.8-1.4,1.6-2,1.8c-0.6,0.2-6.4,0.8-12.8,1.4c-11.4,1-11.7,1-12.9,0.1l-1.2-0.9l-0.1-16.5c-0.1-16-0.1-16.5,0.9-17.5C148.2,115,148.1,115,161.5,116.2z M194.3,121.2c7.7,2.1,8.3,2.9,8.3,11.9c0,10.1-1.7,12.1-10,12.2c-3.2,0-4.8-0.2-5.4-0.6c-0.7-0.6-0.8-2.1-0.8-11.7C186.4,118.9,186.3,119,194.3,121.2z M40.5,156.8c4,1,5.7,1.9,6.5,3.6c0.8,1.6,3.6,21.1,3.2,22.2c-0.5,1.2-1.1,1-4-1.8c-2.5-2.3-3.2-3.5-7.3-12.5c-4.3-9.4-4.9-11.2-4.1-12C35.2,155.8,37.2,156,40.5,156.8z M198.5,156.7c0.3,0.7-4.6,12.3-8,19c-2.4,4.7-4.1,6.7-5.8,6.7c-2.3,0-2.5-0.8-1.3-9.2c1.3-10.2,1.8-12.5,3.2-14C188.5,157,197.8,155,198.5,156.7z M173.6,161.3c1,1,1,1.9-0.4,11.7c-1.9,12.7-2.7,14.2-7.9,15.7c-3.5,1-16.9,2.8-19.1,2.6c-2.9-0.3-3.1-1-2.2-12.1c0.8-10.9,1.3-14.2,2.6-15.8c0.9-1.1,2.4-1.3,17-2.6C169.4,160.4,172.9,160.5,173.6,161.3z M133.5,164c1.2,1.2,1.2,3.1,0.1,16.2c-0.9,10.7-1.3,11.8-4.4,12.7c-2.4,0.7-23.3,0.7-25.7,0c-3-0.8-3.5-2-4.4-12.4c-0.4-5.1-0.8-10.7-0.8-12.5c-0.1-5.3-1.1-5,18-5C131.9,163,132.6,163.1,133.5,164z M80.2,201.1c8.8,1.2,10,1.6,11.2,3.5c1,1.5,2.2,6,2.2,8.3c0,1.7-0.1,1.9-1.2,1.9c-1.1,0-13.6-5.2-19.2-8c-1.5-0.7-3.5-2-4.4-2.7c-2.7-2.3-1.6-5,1.7-4.4C71.3,199.8,75.7,200.5,80.2,201.1z M165.8,200.5c0.1,0.5-0.7,1.8-2,3.1c-1.8,1.9-3.7,2.9-12.1,6.7c-5.4,2.5-10.5,4.5-11.1,4.5c-1.6,0-1.9-1.1-1.1-4.4c0.8-4,2.2-6.9,3.5-7.6c1.2-0.7,18.8-3.4,21.1-3.3C165.2,199.6,165.7,200,165.8,200.5z"/><path fill="#000000" d="M231.9,72.3c-2.4,3.1-4.4,5.1-5.1,5.3c-0.7,0.1-4,0-7.4-0.3c-3.4-0.3-6.3-0.5-6.4-0.4c-0.1,0.2,2,2.1,4.7,4.3c2.7,2.2,5.3,4.5,5.5,5.1c0.5,0.9,0.1,6.6-0.8,12.3c-0.1,0.9-0.1,1.6,0.3,1.6c0.3,0,2.3-2.2,4.6-5c2.2-2.7,4.4-5.1,4.7-5.3c0.4-0.2,3.6,0,7.2,0.3c3.6,0.3,6.6,0.5,6.8,0.3c0.1-0.1-1.9-2-4.5-4.1c-2.6-2.1-5.1-4.3-5.5-4.9c-0.6-1-0.6-1.9,0-7.3c0.4-3.4,0.7-6.4,0.7-6.6C236.7,66.6,235.5,67.8,231.9,72.3z"/></g></g></g>
</svg>